{"title":"The NRL Footy Show - 29-9-2016","uid":15973822,"size":3906095966,"categoryP":"video","categoryS":"tv_shows","magnet":"?xt=urn:btih:bde95b52312829b126e6eff6a1a3c3f6e736e069&amp;dn=The+NRL+Footy+Show+-+29-9-2016&amp;tr=udp%3A%2F%2Ftracker.leechers-paradise.org%3A6969&amp;tr=udp%3A%2F%2Fzer0day.ch%3A1337&amp;tr=udp%3A%2F%2Fopen.demonii.com%3A1337&amp;tr=udp%3A%2F%2Ftracker.coppersurfer.tk%3A6969&amp;tr=udp%3A%2F%2Fexodus.desync.com%3A6969","seeders":5,"leechers":3,"uploader":"Bullrout","files":1,"time":1475806953,"description":"The NRL Footy Show - 29-9-2016\r\n\r\nJoin Fatty Vautin, Erin Molan and Darryl Brohman, along with the gameâ™s biggest names for all the fun and all things footy in the showâ™s 23rd year.\r\n\r\nComplete name : The NRL Footy Show - 29-9-2016.mkv\r\nFormat : Matroska\r\nFormat version : Version 4 / Version 2\r\nFile size : 3.64 GiB\r\nDuration : 2 h 37 min\r\nOverall bit rate mode : Variable\r\nOverall bit rate : 3 314 kb/s\r\nEncoded date : UTC 2016-10-06 21:46:27\r\nWriting application : mkvmerge v9.4.2 ('So High') 64bit\r\nWriting library : libebml v1.3.4 + libmatroska v1.4.5\r\n\r\nVideo\r\nID : 2\r\nFormat : AVC\r\nFormat/Info : Advanced Video Codec\r\nFormat profile :   \r\nFormat settings, CABAC : Yes\r\nFormat settings, ReFrames : 3 frames\r\nCodec ID : V_MPEG4/ISO/AVC\r\nDuration : 2 h 37 min\r\nBit rate mode : Variable\r\nBit rate : 2 928 kb/s\r\nMaximum bit rate : 3 000 kb/s\r\nWidth : 1 280 pixels\r\nHeight : 720 pixels\r\nDisplay aspect ratio : 16:9\r\nFrame rate mode : Constant\r\nFrame rate : 25.000 FPS\r\nStandard : PAL\r\nColor space : YUV\r\nChroma subsampling : 4:2:0\r\nBit depth : 8 bits\r\nScan type : Progressive\r\nBits/(Pixel*Frame) : 0.127\r\nStream size : 3.21 GiB (88%)\r\nWriting library : x264 core 112\r\nDefault : Yes\r\nForced : No\r\nColor range : Limited\r\nColor primaries : BT.709\r\nTransfer characteristics : BT.709\r\nMatrix coefficients : BT.709\r\n\r\nAudio\r\nID : 1\r\nFormat : AC-3\r\nFormat/Info : Audio Coding 3\r\nMode extension : CM (complete main)\r\nFormat settings, Endianness : Big\r\nCodec ID : A_AC3\r\nDuration : 2 h 37 min\r\nBit rate mode : Constant\r\nBit rate : 384 kb/s\r\nChannel(s) : 6 channels\r\nChannel positions : Front: L C R, Side: L R, LFE\r\nSampling rate : 48.0 kHz\r\nFrame rate : 31.250 FPS (1536 spf)\r\nCompression mode : Lossy\r\nStream size : 432 MiB (12%)\r\nDefault : Yes\r\nForced : No","torrent":{"xt":"urn:btih:bde95b52312829b126e6eff6a1a3c3f6e736e069","amp;dn":"The+NRL+Footy+Show+-+29-9-2016","amp;tr":["udp%3A%2F%2Ftracker.leechers-paradise.org%3A6969","udp%3A%2F%2Fzer0day.ch%3A1337","udp%3A%2F%2Fopen.demonii.com%3A1337","udp%3A%2F%2Ftracker.coppersurfer.tk%3A6969","udp%3A%2F%2Fexodus.desync.com%3A6969"],"infoHash":"bde95b52312829b126e6eff6a1a3c3f6e736e069","infoHashBuffer":{"type":"Buffer","data":[189,233,91,82,49,40,41,177,38,230,239,246,161,163,195,246,231,54,224,105]},"announce":[],"urlList":[]}}